<?xml version="1.0" encoding="utf-8"?>
<svg width="87px" height="32px" viewBox="0 0 87 32" version="1.1" xmlns:xlink="http://www.w3.org/1999/xlink" xmlns="http://www.w3.org/2000/svg">
  <defs>
    <path d="M15.999 0L71.001 0Q71.3938 0 71.786 0.0192715Q72.1783 0.038543 72.5692 0.0770395Q72.96 0.115536 73.3485 0.173165Q73.7371 0.230794 74.1223 0.307416Q74.5075 0.384039 74.8884 0.47947Q75.2694 0.574901 75.6453 0.688911Q76.0211 0.802922 76.3909 0.935236Q76.7607 1.06755 77.1235 1.21785Q77.4864 1.36815 77.8415 1.53607Q78.1965 1.704 78.5429 1.88914Q78.8892 2.07428 79.2261 2.2762Q79.563 2.47812 79.8896 2.69632Q80.2161 2.91452 80.5316 3.14848Q80.8471 3.38245 81.1507 3.63161Q81.4543 3.88077 81.7453 4.14452Q82.0363 4.40828 82.314 4.686Q82.5917 4.96372 82.8555 5.25473Q83.1192 5.54574 83.3684 5.84934Q83.6176 6.15294 83.8515 6.46841Q84.0855 6.78387 84.3037 7.11043Q84.5219 7.43699 84.7238 7.77387Q84.9257 8.11075 85.1108 8.45712Q85.296 8.8035 85.4639 9.15855Q85.6318 9.51359 85.7821 9.87645Q85.9324 10.2393 86.0648 10.6091Q86.1971 10.9789 86.3111 11.3547Q86.4251 11.7306 86.5205 12.1116Q86.616 12.4925 86.6926 12.8777Q86.7692 13.263 86.8268 13.6515Q86.8845 14.04 86.923 14.4308Q86.9614 14.8217 86.9807 15.214Q87 15.6062 87 15.999L87 16.001Q87 16.3938 86.9807 16.786Q86.9614 17.1783 86.923 17.5692Q86.8845 17.96 86.8268 18.3485Q86.7692 18.737 86.6926 19.1222Q86.6159 19.5075 86.5205 19.8884Q86.4251 20.2694 86.3111 20.6453Q86.1971 21.0211 86.0648 21.3909Q85.9324 21.7607 85.7821 22.1236Q85.6318 22.4864 85.4639 22.8415Q85.296 23.1965 85.1108 23.5429Q84.9257 23.8892 84.7238 24.2261Q84.5219 24.563 84.3037 24.8896Q84.0855 25.2161 83.8515 25.5316Q83.6176 25.8471 83.3684 26.1507Q83.1192 26.4543 82.8555 26.7453Q82.5917 27.0363 82.314 27.314Q82.0363 27.5917 81.7453 27.8555Q81.4543 28.1192 81.1507 28.3684Q80.8471 28.6176 80.5316 28.8515Q80.2161 29.0855 79.8896 29.3037Q79.563 29.5219 79.2261 29.7238Q78.8892 29.9257 78.5429 30.1109Q78.1965 30.296 77.8414 30.4639Q77.4864 30.6318 77.1235 30.7821Q76.7607 30.9324 76.3909 31.0648Q76.0211 31.1971 75.6453 31.3111Q75.2694 31.4251 74.8884 31.5205Q74.5075 31.616 74.1223 31.6926Q73.7371 31.7692 73.3485 31.8268Q72.96 31.8845 72.5692 31.923Q72.1783 31.9615 71.786 31.9807Q71.3938 32 71.001 32L15.999 32Q15.6062 32 15.214 31.9807Q14.8217 31.9615 14.4308 31.923Q14.04 31.8845 13.6515 31.8268Q13.2629 31.7692 12.8777 31.6926Q12.4925 31.616 12.1116 31.5205Q11.7306 31.4251 11.3547 31.3111Q10.9789 31.1971 10.6091 31.0648Q10.2393 30.9324 9.87644 30.7821Q9.51359 30.6318 9.15854 30.4639Q8.8035 30.296 8.45712 30.1109Q8.11074 29.9257 7.77387 29.7238Q7.43699 29.5219 7.11043 29.3037Q6.78386 29.0855 6.4684 28.8515Q6.15294 28.6176 5.84934 28.3684Q5.54574 28.1192 5.25473 27.8555Q4.96371 27.5917 4.686 27.314Q4.40828 27.0363 4.14452 26.7453Q3.88076 26.4543 3.6316 26.1507Q3.38244 25.8471 3.14848 25.5316Q2.91452 25.2161 2.69632 24.8896Q2.47811 24.563 2.2762 24.2261Q2.07428 23.8893 1.88914 23.5429Q1.704 23.1965 1.53607 22.8415Q1.36815 22.4864 1.21785 22.1236Q1.06755 21.7607 0.935236 21.3909Q0.802921 21.0211 0.688911 20.6453Q0.574901 20.2694 0.47947 19.8884Q0.384038 19.5075 0.307416 19.1222Q0.230794 18.737 0.173165 18.3485Q0.115536 17.96 0.0770395 17.5692Q0.038543 17.1783 0.0192715 16.786Q0 16.3938 0 16.001L0 15.999Q0 15.6062 0.0192715 15.214Q0.038543 14.8217 0.0770395 14.4308Q0.115536 14.04 0.173165 13.6515Q0.230794 13.263 0.307416 12.8777Q0.384038 12.4925 0.47947 12.1116Q0.574901 11.7306 0.688911 11.3547Q0.802921 10.9789 0.935236 10.6091Q1.06755 10.2393 1.21785 9.87645Q1.36815 9.51359 1.53607 9.15855Q1.704 8.8035 1.88914 8.45712Q2.07428 8.11075 2.2762 7.77387Q2.47811 7.43699 2.69632 7.11043Q2.91452 6.78387 3.14848 6.46841Q3.38244 6.15294 3.6316 5.84934Q3.88076 5.54574 4.14452 5.25473Q4.40828 4.96372 4.686 4.686Q4.96371 4.40828 5.25473 4.14452Q5.54574 3.88077 5.84934 3.63161Q6.15294 3.38245 6.4684 3.14848Q6.78386 2.91452 7.11043 2.69632Q7.43699 2.47812 7.77387 2.2762Q8.11074 2.07428 8.45712 1.88914Q8.8035 1.704 9.15854 1.53607Q9.51359 1.36815 9.87644 1.21785Q10.2393 1.06755 10.6091 0.935236Q10.9789 0.802922 11.3547 0.688911Q11.7306 0.574901 12.1116 0.47947Q12.4925 0.384039 12.8777 0.307416Q13.2629 0.230794 13.6515 0.173165Q14.04 0.115536 14.4308 0.0770395Q14.8217 0.038543 15.214 0.0192715Q15.6062 0 15.999 0Z" id="path_1" />
    <clipPath id="clip_1">
      <use xlink:href="#path_1" />
    </clipPath>
  </defs>
  <g id="Rectangle-2">
    <use stroke="none" fill="#ffffff" fill-opacity="0.59607846" xlink:href="#path_1" fill-rule="evenodd" />
    <g clip-path="url(#clip_1)">
      <use xlink:href="#path_1" fill="none" stroke="#979797" stroke-opacity="0.2" stroke-width="1" />
    </g>
  </g>
  <path d="M65.4095 24.3333C69.8611 24.3333 73.6667 20.5278 73.6667 15.5905C73.6667 11.1389 69.8611 7.33333 65.4095 7.33333C60.4722 7.33333 56.6667 11.1389 56.6667 15.5905C56.6667 20.5278 60.4722 24.3333 65.4095 24.3333ZM65.4074 22.3333C68.7565 22.3333 71.6667 19.4232 71.6667 16.0741C71.6667 12.2435 68.7565 9.33333 65.4074 9.33333C61.5768 9.33333 58.6667 12.2435 58.6667 16.0741C58.6667 19.4232 61.5768 22.3333 65.4074 22.3333ZM65.1667 18.8333C66.8232 18.8333 68.1667 17.4899 68.1667 15.8333C68.1667 14.1761 66.8232 12.8333 65.1667 12.8333C63.5101 12.8333 62.1667 14.1761 62.1667 15.8333C62.1667 17.4899 63.5101 18.8333 65.1667 18.8333Z" id="Combined-Shape" fill="currentColor" fill-rule="evenodd" stroke="none" />
  <path d="M43.5 6.5L44 6.5L44 25L43.5 25L43.5 6.5Z" id="Rectangle-3" fill="currentColor" fill-opacity="0.2" fill-rule="evenodd" stroke="none" />
  <path d="M26 16.25C26 18.0449 24.5449 19.5 22.75 19.5C20.9551 19.5 19.5 18.0449 19.5 16.25C19.5 14.4551 20.9551 13 22.75 13C24.5449 13 26 14.4551 26 16.25ZM15.5 14.5C16.6044 14.5 17.5 15.3952 17.5 16.5C17.5 17.6044 16.6044 18.5 15.5 18.5C14.3956 18.5 13.5 17.6044 13.5 16.5C13.5 15.3952 14.3956 14.5 15.5 14.5ZM30 14.5C31.1044 14.5 32 15.3952 32 16.5C32 17.6044 31.1044 18.5 30 18.5C28.8956 18.5 28 17.6044 28 16.5C28 15.3952 28.8956 14.5 30 14.5Z" id="Fill-43" fill="currentColor" fill-rule="evenodd" stroke="none" />
</svg>